<svg width="80" height="80" fill="none" xmlns="http://www.w3.org/2000/svg"><g clip-path="url(#a)" fill="#086CF9"><path d="M55.534 80.007a4.018 4.018 0 0 0 3.865-2.959l3.686-13.762 13.96-3.731a4.006 4.006 0 0 0 2.82-4.896l-7.239-26.977.573-2.132a3.999 3.999 0 0 0-2.411-4.744L67.529 8.64a4.027 4.027 0 0 0-4.898-2.831l-23.807 6.386-19.962-5.352a3.92 3.92 0 0 0-2.476.134l-4.987-4.979a6.664 6.664 0 1 0-9.427 9.424l9.09 9.09L.172 61.166a4.008 4.008 0 0 0 2.82 4.903l51.504 13.8c.338.092.687.139 1.038.138Zm21.751-24.66a1.334 1.334 0 0 1-.933 1.63l-12.469 3.332 7.36-27.473 6.042 22.511ZM63.313 8.387a1.332 1.332 0 0 1 1.64.947l2.844 10.622-23.824-6.383 19.34-5.186Zm-22.927 32.03-6.73-2.243 4.487-4.49 2.243 6.728v.005Zm-5.425-7.315-11.31-11.31a1.333 1.333 0 1 0-1.884 1.885l11.31 11.309-1.884 1.886L12.341 18.02l1.885-1.885 3.77 3.771a1.333 1.333 0 0 0 1.886-1.886l-3.77-3.77 1.885-1.886 18.849 18.852-1.885 1.886ZM8.571 14.252l5.655-5.656 1.885 1.885-5.655 5.655L8.57 14.25ZM2.685 6.71a4 4 0 0 1 6.828-2.828L12.34 6.71l-5.655 5.656-2.83-2.829a3.972 3.972 0 0 1-1.17-2.827Zm.062 55.156 10.493-39.175 17.008 17.008c.14.136.306.24.49.303.011 0 .02.014.031.018l8.78 2.932c.275.09.562.135.85.134a2.64 2.64 0 0 0 1.416-.417l15.329 4.116a1.332 1.332 0 1 0 .69-2.574L43.04 40.24a2.755 2.755 0 0 0-.122-.667l-2.933-8.78c0-.013-.014-.021-.02-.033a1.323 1.323 0 0 0-.301-.488L19.062 9.661l50.613 13.557a1.333 1.333 0 0 1 .944 1.635L56.825 76.35a1.332 1.332 0 0 1-1.635.944L3.691 63.5a1.333 1.333 0 0 1-.943-1.634Z"/><path d="M61.634 31.375a1.334 1.334 0 0 0 .344-2.62l-18.958-5.08a1.331 1.331 0 0 0-1.665 1.633c.13.468.503.828.974.94l18.96 5.081c.113.03.229.046.345.046ZM59.563 39.1a1.333 1.333 0 0 0 .344-2.62l-12.89-3.448a1.332 1.332 0 1 0-.688 2.574l12.89 3.45c.112.029.228.044.344.044ZM18.433 41.925l-3.865-1.035a1.332 1.332 0 1 0-.692 2.573l3.865 1.038a1.332 1.332 0 1 0 .692-2.576ZM56.712 53.56c.19-.711-.232-1.44-.942-1.632l-29.614-7.933a1.333 1.333 0 0 0-.689 2.568l29.613 7.934a1.332 1.332 0 0 0 1.633-.937ZM16.361 49.65l-3.865-1.037a1.333 1.333 0 0 0-.69 2.576l3.866 1.034a1.332 1.332 0 1 0 .69-2.574ZM53.7 59.656 24.086 51.72a1.334 1.334 0 1 0-.69 2.575l29.612 7.934a1.334 1.334 0 1 0 .69-2.574Z"/></g><defs><clipPath id="a"><path fill="#fff" d="M0 0h80v80H0z"/></clipPath></defs></svg>