<svg width="80" height="80" fill="none" xmlns="http://www.w3.org/2000/svg"><g clip-path="url(#a)"><path d="M76.772 7.89H56.68a5.87 5.87 0 0 0-5.742-4.687H29.064a5.87 5.87 0 0 0-5.742 4.688H3.228A3.231 3.231 0 0 0 0 11.118v50.566a3.231 3.231 0 0 0 3.228 3.227h28.127l-1.581 4.858H26.49a4.074 4.074 0 0 0-4.07 4.069 2.965 2.965 0 0 0 2.963 2.961h29.232a2.965 2.965 0 0 0 2.962-2.962 4.074 4.074 0 0 0-4.07-4.068h-3.282l-1.581-4.858h28.127A3.231 3.231 0 0 0 80 61.684V11.118a3.23 3.23 0 0 0-3.228-3.227ZM44.684 5.548h6.254a3.52 3.52 0 0 1 3.515 3.516 3.52 3.52 0 0 1-3.516 3.515h-6.253a5.829 5.829 0 0 0 1.175-3.515 5.829 5.829 0 0 0-1.175-3.516Zm-4.684 0a3.52 3.52 0 0 1 3.516 3.516A3.52 3.52 0 0 1 40 12.578a3.52 3.52 0 0 1-3.516-3.515A3.52 3.52 0 0 1 40 5.546Zm-10.938 0h6.254a5.829 5.829 0 0 0-1.175 3.516c0 1.318.437 2.535 1.175 3.515h-6.254a3.52 3.52 0 0 1-3.515-3.515 3.52 3.52 0 0 1 3.515-3.516ZM53.51 72.113c.951 0 1.725.773 1.725 1.725 0 .34-.277.618-.618.618H25.384a.619.619 0 0 1-.618-.618c0-.952.774-1.725 1.725-1.725h8.244a1.172 1.172 0 1 0 0-2.344H32.24l1.58-4.857H46.18l1.581 4.857h-7.618a1.172 1.172 0 1 0 0 2.343h13.366Zm24.147-54.85H23.594a1.172 1.172 0 1 0 0 2.345h54.062v33.587H68.79a1.172 1.172 0 1 0 0 2.343h8.867v6.146a.885.885 0 0 1-.884.884H3.228a.885.885 0 0 1-.884-.884v-6.146h61.053a1.172 1.172 0 1 0 0-2.343H58.92a7.661 7.661 0 0 0-5.561-4.96l-8.884-1.803a10.508 10.508 0 0 1-.054-2.207c3.114-2.604 4.63-4.91 4.63-7.043 0-.23-.009-.458-.029-.691-.05-.51-.078-2.861-.068-5.718a8.64 8.64 0 0 0-2.537-6.169 8.648 8.648 0 0 0-6.167-2.561h-.001c-2.331 0-4.522.91-6.167 2.56a8.64 8.64 0 0 0-2.538 6.17c.01 2.858-.018 5.212-.07 5.735-.018.212-.028.439-.028.674 0 2.13 1.512 4.432 4.614 7.029.058.745.037 1.45-.063 2.183l-9.043 1.84a7.662 7.662 0 0 0-5.56 4.96H2.343V19.608H18.23a1.172 1.172 0 1 0 0-2.344H2.344v-6.146c0-.487.396-.884.884-.884H23.32a5.87 5.87 0 0 0 5.741 4.688h21.875a5.87 5.87 0 0 0 5.742-4.688h20.093c.487 0 .884.397.884.884v6.146Zm-43.77 13.502a6.31 6.31 0 0 1 1.855-4.507 6.32 6.32 0 0 1 4.507-1.871h.001a6.32 6.32 0 0 1 4.507 1.872 6.31 6.31 0 0 1 1.853 4.505c-.008 2.404.008 5.23.078 5.94.013.153.02.313.02.478 0 1.409-1.48 3.381-4.168 5.556a3.629 3.629 0 0 1-2.285.81h-.008c-.84 0-1.646-.286-2.294-.814-2.685-2.172-4.163-4.143-4.163-5.552 0-.167.006-.325.018-.457.071-.727.088-3.556.08-5.96Zm8.308 16.295-.175.188c-.513.546-1.137.846-1.765.846h-.01c-.623 0-1.25-.3-1.765-.85l-.205-.22c.076-.479.123-.948.145-1.418a5.941 5.941 0 0 0 1.816.286h.023a5.96 5.96 0 0 0 1.795-.278c.02.483.066.962.142 1.446ZM36.6 48.663l.173.186c.961 1.025 2.194 1.589 3.465 1.589h.023c1.277 0 2.508-.563 3.466-1.584l.142-.153 9.01 1.828a5.313 5.313 0 0 1 3.491 2.665H23.943a5.312 5.312 0 0 1 3.49-2.666l9.166-1.865Z" fill="#086CF9"/></g><defs><clipPath id="a"><path fill="#fff" d="M0 0h80v80H0z"/></clipPath></defs></svg>