<svg aria-hidden="true" style="position: absolute; width: 0; height: 0; overflow: hidden;" version="1.1" xmlns="http://www.w3.org/2000/svg" xmlns:xlink="http://www.w3.org/1999/xlink">
<defs>
<symbol id="icon-Group" viewBox="0 0 36 32">
<path d="M33.117 16.479c1.613-0.143 2.883-1.501 2.883-3.151v-9.844c0-1.745-1.419-3.164-3.164-3.164h-10.477c-1.745 0-3.164 1.419-3.164 3.164v4.148h-13.148c-1.745 0-3.164 1.419-3.164 3.164v12.656c0 0.37 0.064 0.725 0.181 1.055h-1.166c-1.047 0-1.898 0.852-1.898 1.898 0 2.908 2.366 5.273 5.273 5.273h25.453c2.908 0 5.273-2.366 5.273-5.273 0-1.047-0.852-1.898-1.898-1.898h-1.166c0.117-0.33 0.181-0.685 0.181-1.055v-6.974zM21.305 3.484c0-0.582 0.473-1.055 1.055-1.055h10.477c0.582 0 1.055 0.473 1.055 1.055v9.844c0 0.582-0.473 1.055-1.055 1.055h-9.773c-0.198 0-0.391 0.056-0.559 0.16l-2.127 1.329 0.883-2.944c0.029-0.098 0.044-0.2 0.044-0.303v-9.141zM30.727 29.57h-25.453c-1.674 0-3.048-1.306-3.157-2.953h31.767c-0.109 1.647-1.483 2.953-3.157 2.953zM10.055 16.563c0-0.659 0.536-1.195 1.195-1.195s1.195 0.536 1.195 1.195c0 0.659-0.536 1.195-1.195 1.195s-1.195-0.536-1.195-1.195zM9.492 21.063c0-0.637 0.821-1.195 1.758-1.195 0.502 0 0.986 0.157 1.327 0.43 0.161 0.129 0.43 0.399 0.43 0.765v3.445h-3.516v-3.445zM15.117 24.508v-3.445c0-0.912-0.445-1.791-1.222-2.413-0.017-0.014-0.036-0.027-0.053-0.041 0.446-0.563 0.713-1.274 0.713-2.047 0-1.822-1.482-3.305-3.305-3.305s-3.305 1.482-3.305 3.305c0 0.773 0.268 1.485 0.714 2.049-0.784 0.605-1.277 1.48-1.277 2.451v3.445h-1.336c-0.582 0-1.055-0.473-1.055-1.055v-12.656c0-0.582 0.473-1.055 1.055-1.055h13.148v2.728l-0.839 2.796c-0.255 0.849 0.036 1.745 0.741 2.283 0.38 0.29 0.828 0.436 1.278 0.436 0.386 0 0.773-0.107 1.12-0.324l1.87-1.169h7.643v6.961c0 0.582-0.473 1.055-1.055 1.055h-14.836z"></path>
<path d="M28.688 9.883h-2.25c-0.582 0-1.055 0.472-1.055 1.055s0.472 1.055 1.055 1.055h2.25c0.582 0 1.055-0.472 1.055-1.055s-0.472-1.055-1.055-1.055z"></path>
<path d="M24.75 6.93h5.625c0.582 0 1.055-0.472 1.055-1.055s-0.472-1.055-1.055-1.055h-5.625c-0.582 0-1.055 0.472-1.055 1.055s0.472 1.055 1.055 1.055z"></path>
</symbol>
<symbol id="icon-instructor-1" viewBox="0 0 32 32">
<path d="M31.375 1.252h-30.75c-0.345 0-0.625 0.28-0.625 0.625v28.246c0 0.345 0.28 0.625 0.625 0.625h6.063c0.345 0 0.625-0.28 0.625-0.625s-0.28-0.625-0.625-0.625h-5.438v-22.499c0.021 0.002 0.042 0.003 0.063 0.003h29.437v22.496h-1.112v-2.7c0-1.22-0.778-2.298-1.936-2.682l-2.206-0.731c0.269-0.317 0.489-0.677 0.647-1.068h1.857c0.345 0 0.625-0.28 0.625-0.625v-1.763c0-3.374-2.745-6.119-6.119-6.119s-6.119 2.745-6.119 6.119v1.763c0 0.345 0.28 0.625 0.625 0.625h1.857c0.159 0.391 0.378 0.751 0.647 1.068l-2.206 0.731c-1.158 0.384-1.936 1.461-1.936 2.682v2.7h-2.907c-0.345 0-0.625 0.28-0.625 0.625s0.28 0.625 0.625 0.625h18.907c0.345 0 0.625-0.28 0.625-0.625v-28.246c0-0.345-0.28-0.625-0.625-0.625zM27.376 21.067h-0.952c0.004-0.073 0.006-0.146 0.006-0.219v-0.86c0-0.006-0-0.012-0-0.017h0.946v1.097zM17.637 21.067v-1.097h0.946c0 0.006-0 0.012-0 0.017v0.861c0 0.074 0.002 0.147 0.006 0.219h-0.952zM18.794 18.72h-1.005c0.539-2.102 2.45-3.66 4.717-3.66s4.178 1.558 4.717 3.66h-1.005c-0.528-1.543-1.992-2.656-3.712-2.656s-3.184 1.113-3.712 2.656zM22.507 20.773c-0.345 0-0.625 0.28-0.625 0.625v0.646c0 0.345 0.28 0.625 0.625 0.625h1.956c-0.142 0.152-0.301 0.288-0.474 0.404-0.041 0.020-0.080 0.044-0.116 0.073-0.4 0.239-0.867 0.376-1.366 0.376s-0.965-0.138-1.365-0.376c-0.036-0.029-0.075-0.053-0.116-0.073-0.718-0.48-1.192-1.298-1.192-2.224v-0.861c0-1.474 1.199-2.674 2.674-2.674s2.674 1.199 2.674 2.674v0.861c0 0.196-0.022 0.386-0.062 0.57h-1.987v-0.021c0-0.345-0.28-0.625-0.625-0.625zM28.388 29.498h-11.763v-2.7c0-0.68 0.434-1.281 1.080-1.495l2.972-0.985c0.547 0.29 1.169 0.454 1.83 0.454s1.283-0.165 1.83-0.454l2.972 0.985c0.646 0.214 1.080 0.815 1.080 1.495v2.7zM30.75 5.752h-29.437c-0.021 0-0.042 0.001-0.063 0.003v-3.253h29.5v3.25z"></path>
<path d="M10.097 29.681c-0.116-0.117-0.277-0.183-0.442-0.183s-0.326 0.066-0.442 0.183c-0.117 0.116-0.183 0.277-0.183 0.442s0.066 0.326 0.183 0.442c0.116 0.116 0.277 0.183 0.442 0.183s0.326-0.067 0.442-0.183c0.116-0.116 0.183-0.277 0.183-0.442s-0.067-0.326-0.183-0.442z"></path>
<path d="M28 3.502h-14.121c-0.345 0-0.625 0.28-0.625 0.625s0.28 0.625 0.625 0.625h14.121c0.345 0 0.625-0.28 0.625-0.625s-0.28-0.625-0.625-0.625z"></path>
<path d="M6.942 3.685c-0.116-0.116-0.277-0.183-0.442-0.183s-0.326 0.067-0.442 0.183c-0.116 0.116-0.183 0.277-0.183 0.442s0.067 0.326 0.183 0.442c0.116 0.116 0.277 0.183 0.442 0.183s0.326-0.067 0.442-0.183c0.116-0.116 0.183-0.277 0.183-0.442s-0.067-0.326-0.183-0.442z"></path>
<path d="M4.442 3.685c-0.116-0.116-0.277-0.183-0.442-0.183s-0.326 0.067-0.442 0.183c-0.116 0.116-0.183 0.277-0.183 0.442s0.067 0.326 0.183 0.442c0.116 0.116 0.277 0.183 0.442 0.183s0.326-0.067 0.442-0.183c0.116-0.116 0.183-0.277 0.183-0.442s-0.067-0.326-0.183-0.442z"></path>
<path d="M9.442 3.685c-0.116-0.116-0.277-0.183-0.442-0.183s-0.326 0.067-0.442 0.183c-0.116 0.116-0.183 0.277-0.183 0.442s0.067 0.326 0.183 0.442c0.116 0.116 0.277 0.183 0.442 0.183s0.326-0.067 0.442-0.183c0.116-0.116 0.183-0.277 0.183-0.442s-0.067-0.326-0.183-0.442z"></path>
<path d="M13.397 8.627h-7.482c-1.4 0-2.539 1.139-2.539 2.539v5.171c0 1.4 1.139 2.539 2.539 2.539h7.482c1.4 0 2.539-1.139 2.539-2.539v-5.171c0-1.4-1.139-2.539-2.539-2.539zM13.397 17.627h-7.482c-0.711 0-1.289-0.578-1.289-1.289v-5.171c0-0.711 0.578-1.289 1.289-1.289h7.482c0.711 0 1.289 0.578 1.289 1.289v5.171h0c0 0.711-0.578 1.289-1.289 1.289z"></path>
<path d="M11.523 12.702l-2.389-1.531c-0.384-0.246-0.871-0.263-1.272-0.044s-0.649 0.638-0.649 1.095v3.063c0 0.456 0.249 0.876 0.649 1.095 0.187 0.102 0.393 0.153 0.599 0.153 0.235 0 0.469-0.066 0.673-0.197l2.389-1.531c0.36-0.231 0.574-0.623 0.574-1.050s-0.215-0.82-0.574-1.050zM8.463 15.279l0-3.054 2.382 1.527-2.382 1.527z"></path>
<path d="M8.593 23.627h-4.593c-0.345 0-0.625 0.28-0.625 0.625s0.28 0.625 0.625 0.625h4.593c0.345 0 0.625-0.28 0.625-0.625s-0.28-0.625-0.625-0.625z"></path>
<path d="M13.176 23.627h-1.732c-0.345 0-0.625 0.28-0.625 0.625s0.28 0.625 0.625 0.625h1.732c0.345 0 0.625-0.28 0.625-0.625s-0.28-0.625-0.625-0.625z"></path>
<path d="M10.587 20.627h-6.587c-0.345 0-0.625 0.28-0.625 0.625s0.28 0.625 0.625 0.625h6.587c0.345 0 0.625-0.28 0.625-0.625s-0.28-0.625-0.625-0.625z"></path>
<path d="M13.641 20.81c-0.116-0.116-0.277-0.183-0.442-0.183s-0.326 0.067-0.442 0.183c-0.116 0.116-0.183 0.277-0.183 0.442s0.067 0.326 0.183 0.442c0.116 0.116 0.277 0.183 0.442 0.183s0.326-0.067 0.442-0.183c0.116-0.116 0.183-0.277 0.183-0.442s-0.067-0.326-0.183-0.442z"></path>
<path d="M13.175 26.627h-9.175c-0.345 0-0.625 0.28-0.625 0.625s0.28 0.625 0.625 0.625h9.175c0.345 0 0.625-0.28 0.625-0.625s-0.28-0.625-0.625-0.625z"></path>
</symbol>
<symbol id="icon-success-1" viewBox="0 0 32 32">
<path d="M9.54 11.247l1.992 1.992 4.469-4.402v1.826h1.882v-5.015h-5.015v1.882h1.777l-3.103 3.057-2.002-2.001-8.007 8.007 1.331 1.331 6.676-6.676z"></path>
<path d="M5.647 32h3.765c0-0.621 0-10.627 0-11.294h-3.765v11.294z"></path>
<path d="M11.294 32h3.765c0-0.588 0-12.298 0-13.177h-3.765v13.177z"></path>
<path d="M32 9.412l-3.529-4.706 3.529-4.706c-0.634 0-11.655 0-12.235 0v16.941h-2.824v15.059h7.529v-15.059h-2.823v-7.529h10.353z"></path>
<path d="M3.765 22.588h-3.765v9.412h3.765c0-0.434 0-8.979 0-9.412z"></path>
</symbol>
<symbol id="icon-online-learning-1-1" viewBox="0 0 32 32">
<path d="M30.709 3.156h-8.037c-0.227-1.077-1.169-1.873-2.297-1.875h-8.75c-1.128 0.002-2.070 0.798-2.294 1.86l-0.003 0.015h-8.038c-0.713 0.001-1.29 0.578-1.291 1.291v20.227c0.001 0.713 0.579 1.29 1.291 1.291h11.251l-0.632 1.943h-1.314c-0.899 0.001-1.627 0.729-1.628 1.628v0c0.001 0.654 0.531 1.184 1.185 1.184h11.693c0.654-0.001 1.184-0.531 1.185-1.185v-0c-0.001-0.898-0.73-1.626-1.628-1.627h-1.313l-0.632-1.943h11.251c0.713-0 1.291-0.578 1.292-1.291v-20.227c-0.001-0.713-0.578-1.29-1.291-1.291h-0zM17.874 2.219h2.502c0.776 0.001 1.405 0.63 1.406 1.406v0c-0.001 0.776-0.63 1.405-1.406 1.406h-2.501c0.293-0.386 0.47-0.874 0.47-1.404 0-0.001 0-0.002 0-0.002v0c0-0.001 0-0.002 0-0.003 0-0.53-0.177-1.018-0.474-1.41l0.004 0.006zM16 2.219c0.776 0.001 1.405 0.63 1.406 1.406v0c-0.001 0.776-0.63 1.405-1.406 1.406h-0c-0.776-0.001-1.405-0.63-1.406-1.406v-0c0.001-0.777 0.63-1.406 1.406-1.407h0zM11.625 2.219h2.502c-0.293 0.386-0.47 0.874-0.47 1.404 0 0.001 0 0.002 0 0.003v-0c0 0.527 0.175 1.014 0.47 1.406h-2.502c-0.776-0.001-1.405-0.63-1.406-1.406v-0c0.001-0.776 0.63-1.405 1.406-1.406h0zM21.404 28.845c0.38 0 0.69 0.309 0.69 0.69 0 0.136-0.111 0.247-0.247 0.247h-11.693c-0.136-0-0.247-0.111-0.247-0.247v-0c0-0.381 0.31-0.69 0.69-0.69h3.298c0.259 0 0.469-0.21 0.469-0.469s-0.21-0.469-0.469-0.469h-0.998l0.632-1.943h4.944l0.632 1.943h-3.047c-0.004-0-0.009-0-0.014-0-0.259 0-0.469 0.21-0.469 0.469s0.21 0.469 0.469 0.469c0.005 0 0.010-0 0.014-0l-0.001 0h5.346zM31.063 6.905h-21.625c-0.259 0-0.469 0.21-0.469 0.469s0.21 0.469 0.469 0.469v0h21.625v13.435h-3.546c-0.004-0-0.009-0-0.014-0-0.259 0-0.469 0.21-0.469 0.469s0.21 0.469 0.469 0.469c0.005 0 0.010-0 0.014-0l-0.001 0h3.547v2.458c-0 0.195-0.158 0.353-0.354 0.354h-29.418c-0.195-0-0.353-0.158-0.354-0.354v-2.458h24.421c0.004 0 0.009 0 0.014 0 0.259 0 0.469-0.21 0.469-0.469s-0.21-0.469-0.469-0.469c-0.005 0-0.010 0-0.014 0l0.001-0h-1.791c-0.354-0.997-1.181-1.744-2.204-1.98l-0.021-0.004-3.554-0.721c-0.022-0.163-0.035-0.352-0.035-0.544 0-0.119 0.005-0.238 0.015-0.354l-0.001 0.015c1.246-1.042 1.852-1.964 1.852-2.817 0-0.092-0.004-0.183-0.012-0.276-0.020-0.204-0.031-1.144-0.027-2.287 0-0.006 0-0.014 0-0.021 0-0.956-0.388-1.821-1.015-2.446l-0-0c-0.627-0.633-1.496-1.024-2.457-1.024-0.003 0-0.007 0-0.010 0h0c-0.932 0-1.809 0.364-2.467 1.024-0.627 0.626-1.015 1.491-1.015 2.447 0 0.007 0 0.015 0 0.022v-0.001c0.004 1.143-0.007 2.085-0.028 2.294-0.007 0.085-0.011 0.176-0.011 0.27 0 0.852 0.605 1.773 1.846 2.812 0.023 0.298 0.015 0.58-0.025 0.873l-3.617 0.736c-1.043 0.24-1.87 0.987-2.217 1.963l-0.007 0.021h-7.62v-13.434h6.355c0.259 0 0.469-0.21 0.469-0.469s-0.21-0.469-0.469-0.469h-6.354v-2.458c0-0.195 0.158-0.354 0.354-0.354h8.037c0.227 1.077 1.168 1.873 2.296 1.875h8.75c1.128-0.002 2.070-0.798 2.294-1.86l0.003-0.015h8.037c0.195 0 0.354 0.159 0.354 0.354v2.458zM13.555 12.306c-0-0.005-0-0.010-0-0.015 0-0.698 0.284-1.331 0.742-1.787l0-0c0.458-0.462 1.093-0.748 1.796-0.748 0.003 0 0.005 0 0.008 0v0c0.002 0 0.004 0 0.007 0 0.702 0 1.338 0.286 1.796 0.749l0 0c0.458 0.457 0.741 1.089 0.741 1.787 0 0.005-0 0.011-0 0.016v-0.001c-0.003 0.962 0.003 2.092 0.031 2.376 0.005 0.061 0.008 0.125 0.008 0.191 0 0.564-0.592 1.352-1.667 2.222-0.247 0.202-0.566 0.324-0.914 0.324h-0.003c-0.336 0-0.658-0.114-0.918-0.326-1.074-0.869-1.665-1.657-1.665-2.221 0-0.067 0.002-0.13 0.007-0.183 0.028-0.291 0.035-1.422 0.032-2.384zM16.878 18.824l-0.070 0.075c-0.205 0.218-0.455 0.338-0.706 0.338h-0.004c-0.249 0-0.5-0.12-0.706-0.34l-0.082-0.088c0.030-0.192 0.049-0.379 0.058-0.567 0.217 0.072 0.467 0.114 0.726 0.114h0.009c0.256-0 0.503-0.041 0.735-0.116l-0.017 0.005c0.008 0.193 0.026 0.385 0.057 0.578zM14.64 19.465l0.069 0.074c0.384 0.41 0.878 0.636 1.386 0.636h0.009c0.511 0 1.003-0.225 1.386-0.634l0.057-0.061 3.604 0.731c0.608 0.143 1.106 0.533 1.391 1.055l0.006 0.011h-12.971c0.29-0.533 0.788-0.923 1.382-1.064l0.014-0.003 3.666-0.746z"></path>
</symbol>
<symbol id="icon-notes-1" viewBox="0 0 32 32">
<path d="M22.214 32.003c0.735-0.002 1.354-0.497 1.543-1.172l0.003-0.011 1.474-5.505 5.584-1.492c0.687-0.191 1.182-0.811 1.182-1.546 0-0.147-0.020-0.289-0.057-0.423l0.003 0.011-2.896-10.791 0.229-0.853c0.034-0.122 0.053-0.263 0.053-0.408 0-0.674-0.417-1.25-1.006-1.486l-0.011-0.004-1.304-4.866c-0.193-0.688-0.815-1.184-1.553-1.184-0.144 0-0.284 0.019-0.417 0.055l0.011-0.003-9.523 2.554-7.985-2.141c-0.124-0.035-0.267-0.056-0.415-0.056-0.207 0-0.405 0.040-0.586 0.113l0.011-0.004-1.995-1.992c-0.482-0.483-1.149-0.781-1.885-0.781-1.472 0-2.666 1.194-2.666 2.666 0 0.736 0.298 1.402 0.781 1.885l3.636 3.636-4.356 16.262c-0.035 0.124-0.054 0.267-0.054 0.414 0 0.736 0.496 1.356 1.171 1.544l0.011 0.003 20.602 5.52c0.135 0.037 0.275 0.056 0.415 0.055zM30.914 22.139c0.011 0.041 0.018 0.089 0.018 0.138 0 0.244-0.164 0.45-0.388 0.513l-0.004 0.001-4.988 1.333 2.944-10.989 2.417 9.004zM25.325 3.355c0.042-0.012 0.091-0.019 0.141-0.019 0.246 0 0.453 0.167 0.515 0.394l0.001 0.004 1.138 4.249-9.53-2.553 7.736-2.074zM16.154 16.167l-2.692-0.897 1.795-1.796 0.897 2.691v0.002zM13.984 13.241l-4.524-4.524c-0.097-0.102-0.235-0.166-0.387-0.166-0.294 0-0.533 0.239-0.533 0.533 0 0.152 0.064 0.29 0.166 0.387l4.524 4.524-0.754 0.754-7.541-7.541 0.754-0.754 1.508 1.508c0.097 0.097 0.23 0.156 0.377 0.156 0.295 0 0.533-0.239 0.533-0.533 0-0.147-0.060-0.281-0.156-0.377v0l-1.508-1.508 0.754-0.754 7.54 7.541-0.754 0.754zM3.428 5.701l2.262-2.262 0.754 0.754-2.262 2.262-0.754-0.754zM1.074 2.684c0-0.883 0.716-1.6 1.6-1.6 0.442 0 0.842 0.179 1.131 0.468l1.131 1.131-2.262 2.262-1.132-1.132c-0.289-0.288-0.468-0.686-0.468-1.126 0-0.002 0-0.003 0-0.005v0zM1.099 24.746l4.197-15.67 6.803 6.803c0.056 0.054 0.122 0.096 0.196 0.121 0.004 0 0.008 0.006 0.012 0.007l3.512 1.173c0.11 0.036 0.225 0.054 0.34 0.054 0.21-0.001 0.406-0.063 0.57-0.169l-0.004 0.003 6.132 1.646c0.041 0.012 0.089 0.018 0.138 0.018 0.294 0 0.533-0.239 0.533-0.533 0-0.245-0.166-0.452-0.391-0.514l-0.004-0.001-5.918-1.588c-0.006-0.097-0.023-0.188-0.051-0.275l0.002 0.008-1.173-3.512c0-0.005-0.006-0.008-0.008-0.013-0.027-0.076-0.068-0.141-0.121-0.195l-8.241-8.244 20.245 5.423c0.23 0.063 0.396 0.27 0.396 0.515 0 0.049-0.007 0.097-0.019 0.143l0.001-0.004-5.518 20.599c-0.063 0.23-0.269 0.396-0.515 0.396-0.049 0-0.097-0.007-0.143-0.019l0.004 0.001-20.6-5.518c-0.23-0.063-0.395-0.27-0.395-0.515 0-0.049 0.007-0.097 0.019-0.142l-0.001 0.004z"></path>
<path d="M24.654 12.55c0.293-0.002 0.529-0.24 0.529-0.534 0-0.244-0.164-0.45-0.388-0.514l-0.004-0.001-7.583-2.032c-0.046-0.014-0.099-0.023-0.153-0.023-0.294 0-0.532 0.238-0.532 0.532 0 0.051 0.007 0.1 0.021 0.147l-0.001-0.004c0.052 0.187 0.201 0.331 0.39 0.376l7.584 2.032c0.045 0.012 0.092 0.018 0.138 0.018zM23.825 15.64c0.294-0.001 0.532-0.239 0.532-0.533 0-0.245-0.165-0.452-0.391-0.514l-0.004-0.001-5.156-1.379c-0.041-0.011-0.089-0.018-0.138-0.018-0.294 0-0.533 0.239-0.533 0.533 0 0.245 0.166 0.452 0.392 0.514l0.004 0.001 5.156 1.38c0.045 0.012 0.091 0.018 0.138 0.018zM7.373 16.77l-1.546-0.414c-0.042-0.012-0.089-0.018-0.138-0.018-0.294 0-0.533 0.239-0.533 0.533 0 0.245 0.165 0.452 0.391 0.514l0.004 0.001 1.546 0.415c0.042 0.012 0.089 0.018 0.138 0.018 0.295 0 0.533-0.239 0.533-0.533 0-0.245-0.166-0.452-0.391-0.514l-0.004-0.001zM22.685 21.424c0.076-0.284-0.093-0.576-0.377-0.653l-11.846-3.173c-0.030-0.006-0.065-0.009-0.1-0.009-0.294 0-0.533 0.239-0.533 0.533 0 0.232 0.148 0.429 0.354 0.502l0.004 0.001 11.845 3.174c0.042 0.012 0.090 0.018 0.139 0.018 0.245 0 0.451-0.165 0.513-0.39l0.001-0.004zM6.544 19.86l-1.546-0.415c-0.041-0.012-0.089-0.018-0.138-0.018-0.295 0-0.533 0.239-0.533 0.533 0 0.245 0.166 0.452 0.392 0.514l0.004 0.001 1.546 0.414c0.041 0.012 0.089 0.018 0.138 0.018 0.294 0 0.533-0.239 0.533-0.533 0-0.245-0.166-0.452-0.391-0.514l-0.004-0.001zM21.48 23.862l-11.846-3.174c-0.047-0.015-0.102-0.024-0.159-0.024-0.295 0-0.534 0.239-0.534 0.534 0 0.253 0.176 0.465 0.413 0.52l0.004 0.001 11.845 3.174c0.049 0.016 0.105 0.025 0.163 0.025 0.295 0 0.534-0.239 0.534-0.534 0-0.255-0.178-0.468-0.417-0.521l-0.004-0.001z"></path>
</symbol>
<symbol id="icon-choices-1" viewBox="0 0 32 32">
<path d="M9.854 6.414c-0.277 0-0.501 0.224-0.501 0.501-0.001 0.608-0.494 1.101-1.102 1.102h-0c-0.609-0.001-1.102-0.494-1.102-1.102v-0c0.001-0.608 0.494-1.101 1.102-1.102h0c0.277 0 0.501-0.224 0.501-0.501s-0.224-0.501-0.501-0.501v0c-1.162 0.002-2.103 0.943-2.104 2.104v0c0 1.16 0.944 2.104 2.104 2.104s2.104-0.944 2.104-2.104c0-0.277-0.224-0.501-0.501-0.501zM9.854 12.292c-0.277 0-0.501 0.224-0.501 0.501-0.001 0.608-0.494 1.101-1.102 1.102h-0c-0.608-0.001-1.101-0.494-1.102-1.102v-0c0.001-0.609 0.494-1.102 1.102-1.102h0c0.271-0.008 0.487-0.229 0.487-0.501s-0.216-0.493-0.486-0.501l-0.001-0c-1.161 0.002-2.102 0.943-2.104 2.104v0c0 1.16 0.944 2.105 2.104 2.105s2.104-0.944 2.104-2.104c0-0.277-0.224-0.501-0.501-0.501zM15.733 13.361h-3.741c-0.277 0-0.501 0.224-0.501 0.501s0.224 0.501 0.501 0.501h3.741c0.277 0 0.501-0.224 0.501-0.501s-0.224-0.501-0.501-0.501v0zM15.733 11.224h-3.741c-0.271 0.008-0.487 0.229-0.487 0.501s0.216 0.493 0.486 0.501l0.001 0h3.741c0.271-0.008 0.487-0.229 0.487-0.501s-0.216-0.493-0.486-0.501l-0.001-0zM14.664 19.24h-2.672c-0.277 0-0.501 0.224-0.501 0.501s0.224 0.501 0.501 0.501h2.672c0.271-0.008 0.487-0.229 0.487-0.501s-0.216-0.493-0.486-0.501l-0.001-0zM15.733 17.102h-3.741c-0.004-0-0.009-0-0.014-0-0.277 0-0.501 0.224-0.501 0.501s0.224 0.501 0.501 0.501c0.005 0 0.010-0 0.015-0l-0.001 0h3.741c0.271-0.008 0.487-0.229 0.487-0.501s-0.216-0.493-0.486-0.501l-0.001-0zM20.543 7.482h-8.551c-0.004-0-0.009-0-0.014-0-0.277 0-0.501 0.224-0.501 0.501s0.224 0.501 0.501 0.501c0.005 0 0.010-0 0.015-0l-0.001 0h8.551c0.271-0.008 0.487-0.229 0.487-0.501s-0.216-0.493-0.486-0.501l-0.001-0zM18.405 5.344h-6.413c-0.277 0-0.501 0.224-0.501 0.501s0.224 0.501 0.501 0.501h6.413c0.277 0 0.501-0.224 0.501-0.501s-0.224-0.501-0.501-0.501v0zM9.854 18.171c-0.277 0-0.501 0.224-0.501 0.501-0.001 0.609-0.494 1.102-1.102 1.102h-0c-0.609-0.001-1.102-0.494-1.102-1.102v-0c0.001-0.609 0.494-1.102 1.102-1.102h0c0.004 0 0.009 0 0.014 0 0.277 0 0.501-0.224 0.501-0.501s-0.224-0.501-0.501-0.501c-0.005 0-0.010 0-0.015 0l0.001-0c-1.161 0.002-2.102 0.943-2.104 2.104v0c0 1.161 0.944 2.105 2.104 2.105s2.104-0.944 2.104-2.104c0-0.277-0.224-0.501-0.501-0.501z"></path>
<path d="M22.68 0h-18.171c-0.866 0.002-1.568 0.704-1.569 1.57v22.447c0.001 0.867 0.703 1.569 1.57 1.57h9.085c0.277 0 0.501-0.224 0.501-0.501s-0.224-0.501-0.501-0.501h-9.086c-0.313 0-0.568-0.255-0.568-0.568v-22.446c0-0.313 0.255-0.568 0.568-0.568h18.171c0.313 0 0.568 0.255 0.568 0.568v16.568c0.008 0.271 0.229 0.487 0.501 0.487s0.493-0.216 0.501-0.486l0-0.001v-16.568c-0.001-0.867-0.703-1.569-1.57-1.57h-0z"></path>
<path d="M27.411 20.318c-0.055-0.006-0.119-0.009-0.184-0.009-0.421 0-0.81 0.141-1.12 0.378l0.005-0.003c-0.293-0.492-0.794-0.842-1.373-0.9-0.055-0.006-0.119-0.009-0.184-0.009-0.421 0-0.809 0.141-1.12 0.378l0.005-0.003c-0.293-0.492-0.794-0.842-1.372-0.9-0.055-0.006-0.119-0.009-0.184-0.009-0.306 0-0.595 0.074-0.85 0.206l0.010-0.005v-6.381c0-0.518-0.22-1.015-0.605-1.362-0.326-0.294-0.759-0.474-1.235-0.474-0.065 0-0.129 0.003-0.193 0.010l0.008-0.001c-0.925 0.092-1.649 0.929-1.649 1.904v6.397l-1.473 1.473c-0.575 0.571-0.932 1.363-0.932 2.238 0 0.26 0.031 0.513 0.091 0.755l-0.005-0.022 1.118 4.752c0.449 1.888 2.121 3.271 4.117 3.271 0.005 0 0.009 0 0.014-0h4.518c2.339 0 4.242-1.903 4.242-4.242v-5.535c0-0.975-0.724-1.812-1.649-1.904zM28.058 27.758c0 1.786-1.454 3.24-3.24 3.24h-4.519c-0.003 0-0.006 0-0.010 0-1.524 0-2.801-1.056-3.14-2.476l-0.004-0.022-1.118-4.752c-0.038-0.151-0.059-0.324-0.059-0.502 0-0.598 0.244-1.14 0.637-1.531l0.764-0.764v1.729c0 0.277 0.224 0.501 0.501 0.501s0.501-0.224 0.501-0.501v0-9.544c0-0.466 0.328-0.865 0.747-0.907 0.027-0.003 0.058-0.005 0.089-0.005 0.215 0 0.412 0.082 0.559 0.217l-0.001-0.001c0.175 0.158 0.275 0.384 0.275 0.62v8.818c0.008 0.271 0.229 0.487 0.501 0.487s0.493-0.216 0.501-0.486l0-0.001v-0.802c0.001-0.461 0.375-0.835 0.837-0.835 0.030 0 0.060 0.002 0.090 0.005l-0.004-0c0.419 0.042 0.747 0.44 0.747 0.907v1.26c0 0.277 0.224 0.501 0.501 0.501s0.501-0.224 0.501-0.501v0-0.802c0.001-0.461 0.375-0.835 0.837-0.835 0.030 0 0.060 0.002 0.090 0.005l-0.004-0c0.419 0.042 0.747 0.44 0.747 0.907v1.26c-0 0.004-0 0.009-0 0.014 0 0.277 0.224 0.501 0.501 0.501s0.501-0.224 0.501-0.501c0-0.005-0-0.010-0-0.015l0 0.001v-0.802c0.001-0.461 0.375-0.835 0.837-0.835 0.030 0 0.061 0.002 0.090 0.005l-0.004-0c0.419 0.042 0.747 0.44 0.747 0.907v5.536z"></path>
</symbol>
<symbol id="icon-technical-support-1" viewBox="0 0 32 32">
<path d="M5.628 24.747c-0.448 0-0.878 0.112-1.26 0.322-1.942-2.476-3.115-5.635-3.118-9.068v-0c0-8.133 6.617-14.75 14.75-14.75 0.989 0 1.977 0.098 2.938 0.292 0.032 0.006 0.070 0.009 0.108 0.009 0.345 0 0.625-0.28 0.625-0.625 0-0.296-0.205-0.543-0.481-0.609l-0.004-0.001c-0.957-0.202-2.056-0.317-3.182-0.317-0.001 0-0.002 0-0.003 0h0c-4.274 0-8.292 1.664-11.314 4.686s-4.686 7.040-4.686 11.314c0.002 3.76 1.299 7.217 3.469 9.949l-0.025-0.033c-0.276 0.407-0.44 0.909-0.44 1.449 0 0.002 0 0.005 0 0.007v-0c0 0.701 0.273 1.36 0.769 1.856 0.472 0.475 1.126 0.769 1.849 0.769 0.003 0 0.005 0 0.008 0h-0c0.002 0 0.005 0 0.007 0 0.723 0 1.377-0.294 1.849-0.769l0-0c0.475-0.472 0.769-1.126 0.769-1.849 0-0.003 0-0.005 0-0.008v0c0-0.701-0.273-1.36-0.769-1.856-0.472-0.475-1.126-0.769-1.849-0.769-0.003 0-0.005 0-0.008 0h0zM6.6 28.344c-0.247 0.249-0.59 0.403-0.968 0.403-0.001 0-0.003 0-0.004 0h0c-0.001 0-0.002 0-0.003 0-0.379 0-0.721-0.154-0.969-0.403l-0-0c-0.249-0.247-0.403-0.59-0.403-0.969 0-0.001 0-0.002 0-0.004v0c0-0.368 0.143-0.713 0.403-0.972 0.247-0.249 0.59-0.403 0.968-0.403 0.001 0 0.003 0 0.004 0h-0c0.367 0 0.712 0.143 0.972 0.403 0.249 0.247 0.403 0.59 0.403 0.969 0 0.001 0 0.002 0 0.003v-0c0 0.367-0.143 0.713-0.403 0.972zM28.556 6.084c0.68-1.020 0.57-2.413-0.328-3.312-0.473-0.475-1.126-0.768-1.849-0.768-0.002 0-0.005 0-0.007 0h0c-0.702 0-1.361 0.273-1.856 0.769-0.475 0.472-0.769 1.126-0.769 1.849 0 0.002 0 0.005 0 0.007v-0c0 0.701 0.273 1.36 0.769 1.856 0.472 0.475 1.127 0.769 1.849 0.769 0.002 0 0.005 0 0.007 0h-0c0.448 0 0.879-0.112 1.261-0.322 1.942 2.476 3.115 5.635 3.118 9.068v0.001c0 8.133-6.617 14.75-14.75 14.75-0.979 0-1.958-0.096-2.91-0.287-0.028-0.005-0.061-0.007-0.095-0.007-0.345 0-0.626 0.28-0.626 0.626 0 0.292 0.2 0.537 0.471 0.606l0.004 0.001c0.948 0.198 2.037 0.311 3.153 0.311 0.001 0 0.001 0 0.002 0h-0c4.274 0 8.292-1.664 11.314-4.686s4.686-7.040 4.686-11.314c0-3.595-1.221-7.104-3.444-9.916zM25.4 5.6c-0.249-0.247-0.403-0.59-0.403-0.969 0-0.001 0-0.002 0-0.004v0c0-0.368 0.143-0.713 0.403-0.972 0.247-0.249 0.59-0.403 0.968-0.403 0.001 0 0.003 0 0.004 0h-0c0.367 0 0.713 0.143 0.972 0.403 0.248 0.249 0.402 0.593 0.402 0.972s-0.154 0.723-0.402 0.972l0-0c-0.248 0.249-0.59 0.403-0.969 0.403-0.001 0-0.002 0-0.003 0h0c-0.001 0-0.003 0-0.005 0-0.379 0-0.721-0.154-0.969-0.403l-0-0z"></path>
<path d="M13.421 26.75c0 0.345 0.28 0.625 0.625 0.625h3.908c0.345 0 0.625-0.28 0.625-0.625v-1.212c0.892-0.243 1.671-0.575 2.392-0.997l-0.046 0.025 0.856 0.856c0.113 0.113 0.269 0.183 0.442 0.183s0.329-0.070 0.442-0.183l2.762-2.764c0.244-0.244 0.244-0.64 0-0.884l-0.855-0.854c0.397-0.674 0.729-1.454 0.956-2.277l0.016-0.069h1.207c0.346 0 0.625-0.28 0.625-0.625v-3.908c0-0.345-0.28-0.625-0.625-0.625h-1.207c-0.243-0.892-0.576-1.671-0.997-2.392l0.025 0.046 0.85-0.85c0.113-0.113 0.183-0.269 0.183-0.442s-0.070-0.329-0.183-0.442v0l-2.765-2.762c-0.244-0.244-0.64-0.244-0.884 0l-0.849 0.849c-0.674-0.397-1.454-0.729-2.277-0.956l-0.069-0.016v-1.2c0-0.345-0.28-0.625-0.625-0.625h-3.908c-0.345 0-0.625 0.28-0.625 0.625v1.201c-0.892 0.243-1.671 0.575-2.391 0.997l0.046-0.025-0.849-0.849c-0.244-0.244-0.64-0.244-0.884 0l-2.764 2.762c-0.113 0.113-0.183 0.269-0.183 0.442s0.070 0.329 0.183 0.442v0l0.85 0.85c-0.397 0.674-0.729 1.454-0.956 2.276l-0.016 0.069h-1.205c-0.345 0-0.625 0.28-0.625 0.625l-0.002 3.908c0 0 0 0.001 0 0.001 0 0.345 0.279 0.624 0.624 0.624 0 0 0.001 0 0.001 0h1.207c0.243 0.892 0.575 1.671 0.997 2.392l-0.025-0.046-0.854 0.855c-0.244 0.244-0.244 0.64 0 0.884l2.762 2.764c0.113 0.113 0.269 0.183 0.442 0.183s0.329-0.070 0.442-0.183l0.855-0.856c0.674 0.396 1.454 0.728 2.277 0.956l0.069 0.016v1.212zM11.32 23.252c-0.096-0.063-0.213-0.1-0.339-0.1-0.173 0-0.329 0.070-0.442 0.183l-0.761 0.761-1.879-1.88 0.76-0.76c0.208-0.208 0.243-0.534 0.083-0.781-0.538-0.819-0.948-1.775-1.173-2.8l-0.011-0.057c-0.063-0.284-0.313-0.494-0.611-0.494 0 0 0 0 0 0h-1.073l0.001-2.658h1.072c0.295 0 0.549-0.206 0.611-0.494 0.237-1.082 0.647-2.038 1.204-2.889l-0.020 0.033c0.16-0.247 0.125-0.573-0.083-0.781l-0.755-0.756 1.88-1.879 0.755 0.755c0.208 0.208 0.534 0.242 0.781 0.083 0.818-0.538 1.775-0.948 2.8-1.174l0.057-0.010c0.284-0.063 0.493-0.312 0.494-0.611v-1.068h2.658v1.067c0 0.295 0.206 0.55 0.494 0.611 1.082 0.237 2.039 0.646 2.89 1.204l-0.033-0.020c0.247 0.16 0.572 0.125 0.781-0.083l0.755-0.755 1.88 1.879-0.755 0.756c-0.113 0.113-0.183 0.269-0.183 0.442 0 0.126 0.037 0.244 0.102 0.342l-0.001-0.002c0.537 0.818 0.947 1.775 1.174 2.8l0.011 0.057c0.062 0.288 0.316 0.494 0.611 0.494h1.074v2.658h-1.074c-0.295 0-0.549 0.206-0.611 0.494-0.236 1.082-0.646 2.039-1.204 2.89l0.020-0.033c-0.16 0.247-0.125 0.573 0.083 0.781l0.76 0.76-1.878 1.88-0.761-0.76c-0.113-0.113-0.269-0.183-0.442-0.183-0.126 0-0.243 0.037-0.342 0.102l0.002-0.001c-0.819 0.537-1.775 0.947-2.8 1.174l-0.057 0.011c-0.284 0.063-0.494 0.312-0.494 0.611 0 0 0 0 0 0v-0 1.078h-2.658v-1.078c0-0.294-0.206-0.549-0.494-0.611-1.082-0.237-2.038-0.646-2.889-1.204l0.033 0.020z"></path>
<path d="M21.164 16c0-2.848-2.316-5.164-5.164-5.164s-5.164 2.316-5.164 5.164c0 2.848 2.316 5.164 5.164 5.164s5.164-2.316 5.164-5.164zM12.086 16c0-2.159 1.756-3.914 3.914-3.914s3.914 1.756 3.914 3.914c0 2.158-1.756 3.914-3.914 3.914s-3.914-1.756-3.914-3.914zM21.755 2.364c0.165 0 0.326-0.067 0.442-0.184s0.183-0.278 0.183-0.442c0-0.164-0.067-0.325-0.183-0.442-0.113-0.113-0.269-0.183-0.442-0.183h-0c-0.172 0-0.328 0.070-0.442 0.183l0-0c-0.113 0.113-0.183 0.269-0.183 0.442v0c0 0.165 0.067 0.326 0.183 0.442s0.277 0.183 0.442 0.183zM10.272 29.648c-0.164 0-0.326 0.066-0.442 0.183s-0.183 0.278-0.183 0.442c0 0.165 0.067 0.326 0.183 0.442s0.278 0.183 0.442 0.183c0.164 0 0.326-0.067 0.442-0.183s0.183-0.278 0.183-0.442c0-0.164-0.067-0.326-0.183-0.442-0.113-0.113-0.269-0.183-0.442-0.183h-0z"></path>
</symbol>
<symbol id="icon-user" viewBox="0 0 32 32">
<path d="M16 16.040c-8.434 0-15.294 6.862-15.294 15.294 0.020 0.352 0.31 0.63 0.665 0.63s0.645-0.278 0.665-0.628l0-0.002c0.009-7.708 6.256-13.955 13.963-13.964h0.001c7.708 0.009 13.955 6.256 13.964 13.963v0.001c0.020 0.352 0.31 0.63 0.665 0.63s0.645-0.278 0.665-0.628l0-0.002c0-8.434-6.86-15.292-15.294-15.292zM16 0c-4.037 0.006-7.308 3.277-7.314 7.313v0.001c0.006 4.037 3.277 7.308 7.313 7.314h0.001c4.037-0.006 7.308-3.277 7.314-7.313v-0.001c-0.006-4.037-3.277-7.308-7.313-7.314h-0.001zM16 13.3c-3.304-0.005-5.981-2.682-5.984-5.986v-0c0.005-3.303 2.681-5.979 5.984-5.984h0c3.303 0.005 5.979 2.681 5.984 5.984v0c-0.003 3.304-2.68 5.981-5.984 5.986h-0z"></path>
</symbol>
<symbol id="icon-visibility" viewBox="0 0 32 32">
<path d="M31.88 15.62c-0.25-0.364-6.306-8.952-15.88-8.952-8.214 0-15.536 8.538-15.844 8.9-0.098 0.116-0.158 0.267-0.158 0.432s0.060 0.316 0.159 0.433l-0.001-0.001c0.308 0.364 7.63 8.902 15.844 8.902s15.534-8.54 15.842-8.902c0.098-0.115 0.158-0.266 0.158-0.431 0-0.142-0.044-0.273-0.12-0.381l0.001 0.002zM16 24c-6.586 0-12.846-6.28-14.438-8 1.588-1.72 7.844-8 14.438-8 7.706 0 13.144 6.272 14.472 7.964-1.532 1.666-7.83 8.036-14.472 8.036z"></path>
<path d="M16 10.666c-2.944 0.003-5.331 2.389-5.334 5.334v0c0.003 2.945 2.389 5.331 5.334 5.334h0c2.945-0.003 5.331-2.389 5.334-5.334v-0c-0.003-2.944-2.389-5.331-5.334-5.334h-0zM16 20c-2.206 0-4-1.794-4-4 0-2.204 1.794-4 4-4s4 1.796 4 4c0 2.206-1.794 4-4 4z"></path>
</symbol>
<symbol id="icon-star" viewBox="0 0 32 32">
<path d="M31.954 12.328c-0.112-0.336-0.399-0.584-0.751-0.637l-0.005-0.001-9.92-1.44-4.438-8.99c-0.157-0.311-0.474-0.521-0.84-0.521s-0.683 0.21-0.838 0.515l-0.002 0.005-4.44 8.99-9.92 1.44c-0.457 0.068-0.803 0.458-0.803 0.928 0 0.263 0.108 0.501 0.283 0.672l0 0 7.18 6.996-1.696 9.88c-0.009 0.048-0.014 0.103-0.014 0.159 0 0.518 0.42 0.938 0.938 0.938 0.159 0 0.309-0.040 0.441-0.11l-0.005 0.002 8.876-4.666 8.872 4.666c0.126 0.067 0.276 0.107 0.435 0.107 0.518 0 0.938-0.42 0.938-0.938 0-0.055-0.005-0.11-0.014-0.163l0.001 0.006-1.694-9.88 7.18-7c0.174-0.17 0.282-0.408 0.282-0.67 0-0.104-0.017-0.203-0.048-0.296l0.002 0.007zM22.876 19.288c-0.175 0.171-0.283 0.409-0.283 0.672 0 0.056 0.005 0.111 0.014 0.164l-0.001-0.006 1.458 8.494-7.628-4.012c-0.126-0.068-0.277-0.108-0.436-0.108s-0.31 0.040-0.441 0.11l0.005-0.002-7.628 4.010 1.456-8.494c0.009-0.048 0.013-0.102 0.013-0.158 0-0.263-0.108-0.501-0.283-0.672l-0-0-6.17-6.014 8.528-1.24c0.311-0.046 0.569-0.24 0.704-0.507l0.002-0.005 3.814-7.728 3.814 7.728c0.136 0.278 0.4 0.47 0.706 0.514l8.528 1.24-6.172 6.014z"></path>
</symbol>
<symbol id="icon-mentor-star" viewBox="0 0 34 32">
<path d="M16.661 1.248c0.058-0.172 0.217-0.293 0.405-0.293s0.348 0.122 0.404 0.29l0.001 0.003 3.33 10.251c0.057 0.172 0.217 0.294 0.405 0.294h10.778c0.235 0 0.426 0.191 0.426 0.427 0 0.142-0.069 0.267-0.175 0.345l-0.001 0.001-8.717 6.334c-0.107 0.078-0.176 0.204-0.176 0.345 0 0.047 0.007 0.091 0.021 0.133l-0.001-0.003 3.33 10.251c0.013 0.039 0.020 0.084 0.020 0.131 0 0.236-0.191 0.427-0.427 0.427-0.094 0-0.181-0.031-0.252-0.082l0.001 0.001-8.717-6.334c-0.070-0.051-0.157-0.082-0.252-0.082s-0.182 0.031-0.253 0.083l0.001-0.001-8.717 6.336c-0.070 0.051-0.157 0.082-0.252 0.082-0.236 0-0.427-0.191-0.427-0.427 0-0.048 0.008-0.094 0.022-0.136l-0.001 0.003 3.328-10.251c0.013-0.039 0.021-0.085 0.021-0.132 0-0.141-0.068-0.266-0.173-0.343l-0.001-0.001-8.717-6.336c-0.106-0.079-0.174-0.203-0.174-0.343 0-0.234 0.189-0.425 0.423-0.427h10.78c0.188-0 0.348-0.122 0.404-0.291l0.001-0.003 3.326-10.251z"></path>
</symbol>
<symbol id="icon-clock" viewBox="0 0 32 32">
<path d="M16 0c-8.822 0-16 7.178-16 16s7.178 16 16 16 16-7.178 16-16-7.178-16-16-16zM16 30c-7.72 0-14-6.28-14-14s6.28-14 14-14 14 6.28 14 14-6.28 14-14 14z"></path>
<path d="M17 6h-2v10.416l6.292 6.292 1.414-1.414-5.706-5.708v-9.586z"></path>
</symbol>
<symbol id="icon-placeholder" viewBox="0 0 32 32">
<path d="M16 0c-6.21 0.007-11.243 5.040-11.25 11.249v0.001c0 2.096 0.58 4.14 1.68 5.916l8.93 14.39c0.168 0.268 0.461 0.444 0.796 0.444h0.008c0.337-0.003 0.631-0.183 0.794-0.452l0.002-0.004 8.704-14.53c1.038-1.738 1.586-3.73 1.586-5.764-0.007-6.21-5.040-11.243-11.249-11.25h-0.001zM24.054 16.052l-7.912 13.208-8.12-13.084c-0.883-1.4-1.407-3.102-1.41-4.927v-0.001c0.013-5.179 4.208-9.375 9.387-9.386h0.001c5.179 0.011 9.373 4.209 9.38 9.387v0.001c0 1.696-0.462 3.356-1.326 4.8z"></path>
<path d="M16 5.626c-3.105 0.003-5.621 2.519-5.626 5.624v0c0 0.002 0 0.005 0 0.008 0 3.103 2.515 5.618 5.618 5.618 0.003 0 0.006 0 0.008 0h-0c0.004 0 0.008 0 0.012 0 3.101 0 5.614-2.513 5.614-5.614 0-0.004 0-0.008 0-0.013v0.001c-0.003-3.106-2.52-5.623-5.626-5.626h-0zM16 15.012c-2.077-0.002-3.76-1.685-3.762-3.762v-0c0-2.068 1.694-3.762 3.762-3.762s3.756 1.694 3.756 3.762c0 0.001 0 0.001 0 0.002 0 2.075-1.681 3.758-3.756 3.76h-0z"></path>
</symbol>
<symbol id="icon-arrow-left2" viewBox="0 0 32 32">
<path d="M12.586 27.414l-10-10c-0.781-0.781-0.781-2.047 0-2.828l10-10c0.781-0.781 2.047-0.781 2.828 0s0.781 2.047 0 2.828l-6.586 6.586h19.172c1.105 0 2 0.895 2 2s-0.895 2-2 2h-19.172l6.586 6.586c0.39 0.39 0.586 0.902 0.586 1.414s-0.195 1.024-0.586 1.414c-0.781 0.781-2.047 0.781-2.828 0z"></path>
</symbol>
<symbol id="icon-arrow-right2" viewBox="0 0 32 32">
<path d="M19.414 27.414l10-10c0.781-0.781 0.781-2.047 0-2.828l-10-10c-0.781-0.781-2.047-0.781-2.828 0s-0.781 2.047 0 2.828l6.586 6.586h-19.172c-1.105 0-2 0.895-2 2s0.895 2 2 2h19.172l-6.586 6.586c-0.39 0.39-0.586 0.902-0.586 1.414s0.195 1.024 0.586 1.414c0.781 0.781 2.047 0.781 2.828 0z"></path>
</symbol>
<symbol id="icon-arrow-left" viewBox="0 0 32 32">
<path d="M21.303 31.314l-13.714-13.714c-0.914-0.914-0.914-2.286 0-3.2l13.714-13.714c0.914-0.914 2.286-0.914 3.2 0s0.914 2.286 0 3.2l-12.114 12.114 12.114 12.114c0.914 0.914 0.914 2.286 0 3.2-0.457 0.457-0.914 0.686-1.6 0.686s-1.143-0.229-1.6-0.686z"></path>
</symbol>
<symbol id="icon-arrow-right" viewBox="0 0 32 32">
<path d="M9.189 32c-0.686 0-1.143-0.229-1.6-0.686-0.914-0.914-0.914-2.286 0-3.2l12.114-12.114-12.114-12.114c-0.914-0.914-0.914-2.286 0-3.2s2.286-0.914 3.2 0l13.714 13.714c0.914 0.914 0.914 2.286 0 3.2l-13.714 13.714c-0.457 0.457-0.914 0.686-1.6 0.686z"></path>
</symbol>
<symbol id="icon-facebook" viewBox="0 0 18 32">
<path d="M13.33 5.314h2.92v-5.088c-1.238-0.144-2.672-0.226-4.125-0.226-0.046 0-0.092 0-0.138 0l0.007-0c-4.212 0-7.094 2.65-7.094 7.52v4.48h-4.65v5.688h4.648v14.312h5.698v-14.31h4.46l0.708-5.69h-5.17v-3.92c0.002-1.644 0.444-2.768 2.736-2.768z"></path>
</symbol>
<symbol id="icon-twitter" viewBox="0 0 37 32">
<path d="M36.571 4.661c-1.257 0.564-2.715 0.98-4.242 1.176l-0.078 0.008c1.554-0.933 2.722-2.375 3.283-4.091l0.015-0.053c-1.369 0.826-2.961 1.456-4.658 1.799l-0.096 0.016c-1.372-1.462-3.315-2.372-5.472-2.372-4.14 0-7.497 3.356-7.497 7.497v0c0 0.594 0.050 1.166 0.174 1.71-6.249-0.316-11.746-3.289-15.423-7.804l-0.031-0.039c-0.643 1.084-1.023 2.39-1.023 3.784 0 2.588 1.309 4.87 3.301 6.22l0.026 0.017c-1.248-0.034-2.41-0.371-3.425-0.94l0.037 0.019v0.082c0.004 3.616 2.556 6.635 5.958 7.358l0.049 0.009c-0.572 0.157-1.229 0.247-1.907 0.247-0.021 0-0.041-0-0.062-0l0.003 0c-0.035 0.001-0.076 0.001-0.118 0.001-0.461 0-0.91-0.047-1.344-0.136l0.043 0.007c0.998 2.998 3.741 5.138 6.996 5.223l0.010 0c-2.531 1.994-5.764 3.198-9.279 3.198-0.006 0-0.012 0-0.017 0h0.001c-0.615 0-1.205-0.027-1.794-0.103 3.23 2.11 7.185 3.365 11.433 3.365 0.024 0 0.048-0 0.073-0h-0.004c13.797 0 21.339-11.429 21.339-21.335 0-0.331-0.011-0.651-0.027-0.969 1.484-1.071 2.732-2.361 3.724-3.839l0.034-0.054z"></path>
</symbol>
<symbol id="icon-instagram" viewBox="0 0 32 32">
<path d="M31.968 9.408c-0.074-1.7-0.35-2.87-0.744-3.882-0.424-1.112-1.053-2.060-1.849-2.839l-0.001-0.001c-0.78-0.791-1.724-1.417-2.778-1.824l-0.054-0.018c-1.020-0.394-2.18-0.67-3.88-0.744-1.716-0.080-2.262-0.1-6.602-0.1-4.346 0-4.89 0.020-6.596 0.094-1.7 0.074-2.868 0.35-3.88 0.744-1.112 0.424-2.060 1.053-2.839 1.849l-0.001 0.001c-0.792 0.78-1.419 1.724-1.826 2.778l-0.018 0.054c-0.394 1.020-0.668 2.18-0.744 3.88-0.080 1.714-0.1 2.26-0.1 6.602 0 4.346 0.020 4.89 0.094 6.596 0.074 1.7 0.35 2.87 0.744 3.882 0.406 1.076 1.038 2.038 1.85 2.838 0.8 0.812 1.77 1.444 2.832 1.844 1.020 0.394 2.18 0.67 3.882 0.744 1.706 0.076 2.25 0.094 6.596 0.094 4.344 0 4.888-0.020 6.594-0.094 1.7-0.074 2.87-0.35 3.882-0.744 2.157-0.85 3.832-2.525 4.663-4.627l0.019-0.055c0.394-1.020 0.67-2.18 0.744-3.882 0.076-1.706 0.094-2.25 0.094-6.596 0-4.344-0.006-4.888-0.080-6.594zM29.088 22.472c-0.070 1.564-0.332 2.408-0.552 2.97-0.551 1.4-1.638 2.488-3.002 3.027l-0.036 0.013c-0.562 0.218-1.412 0.48-2.968 0.548-1.688 0.076-2.194 0.094-6.464 0.094s-4.782-0.020-6.464-0.094c-1.564-0.068-2.408-0.33-2.97-0.55-0.721-0.269-1.335-0.676-1.837-1.193l-0.001-0.001c-0.516-0.504-0.923-1.118-1.183-1.804l-0.011-0.034c-0.22-0.562-0.48-1.412-0.55-2.968-0.074-1.688-0.094-2.196-0.094-6.464 0-4.27 0.020-4.782 0.094-6.464 0.070-1.564 0.332-2.408 0.55-2.97 0.256-0.694 0.664-1.324 1.2-1.838 0.52-0.532 1.144-0.938 1.84-1.194 0.56-0.22 1.412-0.48 2.968-0.55 1.688-0.074 2.194-0.094 6.464-0.094 4.276 0 4.78 0.020 6.464 0.094 1.562 0.070 2.406 0.332 2.968 0.55 0.694 0.256 1.326 0.662 1.84 1.194 0.53 0.52 0.936 1.144 1.192 1.84 0.22 0.56 0.482 1.41 0.55 2.968 0.076 1.688 0.094 2.194 0.094 6.464s-0.018 4.77-0.092 6.456z"></path>
<path d="M16.060 7.782c-4.462 0.102-8.041 3.743-8.041 8.22s3.578 8.118 8.031 8.22l0.009 0c4.462-0.102 8.041-3.743 8.041-8.22s-3.578-8.118-8.031-8.22l-0.009-0zM16.060 21.336c-2.946 0-5.334-2.388-5.334-5.334s2.388-5.334 5.334-5.334v0c2.946 0 5.334 2.388 5.334 5.334s-2.388 5.334-5.334 5.334v0zM26.524 7.458c0 1.060-0.86 1.92-1.92 1.92s-1.92-0.86-1.92-1.92v0c0-1.060 0.86-1.92 1.92-1.92s1.92 0.86 1.92 1.92v0z"></path>
</symbol>
<symbol id="icon-linkedin" viewBox="0 0 32 32">
<path d="M31.992 32h0.008v-11.74c0-5.74-1.236-10.164-7.948-10.164-3.226 0-5.392 1.772-6.276 3.45h-0.094v-2.912h-6.362v21.366h6.628v-10.58c0-2.784 0.528-5.476 3.976-5.476 3.4 0 3.45 3.178 3.45 5.656v10.4h6.62zM0.528 10.636h6.634v21.364h-6.634v-21.364zM3.842 0c-2.12 0-3.84 1.72-3.84 3.84s1.72 3.88 3.84 3.88c2.122 0 3.844-1.76 3.844-3.88s-1.726-3.84-3.846-3.84z"></path>
</symbol>
<symbol id="icon-phone" viewBox="0 0 32 32">
<path d="M22 20c-2 2-2 4-4 4s-4-2-6-4-4-4-4-6 2-2 4-4-4-8-6-8-6 6-6 6c0 4 4.109 12.109 8 16s12 8 16 8c0 0 6-4 6-6s-6-8-8-6z"></path>
</symbol>
<symbol id="icon-gmail" viewBox="0 0 30 32">
<path d="M27.619 4.571h-24.762c-1.577 0-2.857 1.28-2.857 2.857v17.143c0 1.577 1.28 2.857 2.857 2.857h24.762c1.577 0 2.857-1.28 2.857-2.857v-17.143c0-1.577-1.28-2.857-2.857-2.857zM24.255 6.476l-9.017 7.12-9.017-7.12h18.034zM26.667 25.524h-22.857v-15.912l11.429 8.791 11.429-8.792v15.914z"></path>
</symbol>
<symbol id="icon-sphere" viewBox="0 0 32 32">
<path d="M15 2c-8.284 0-15 6.716-15 15s6.716 15 15 15c8.284 0 15-6.716 15-15s-6.716-15-15-15zM23.487 22c0.268-1.264 0.437-2.606 0.492-4h3.983c-0.104 1.381-0.426 2.722-0.959 4h-3.516zM6.513 12c-0.268 1.264-0.437 2.606-0.492 4h-3.983c0.104-1.381 0.426-2.722 0.959-4h3.516zM21.439 12c0.3 1.28 0.481 2.62 0.54 4h-5.979v-4h5.439zM16 10v-5.854c0.456 0.133 0.908 0.355 1.351 0.668 0.831 0.586 1.625 1.488 2.298 2.609 0.465 0.775 0.867 1.638 1.203 2.578h-4.852zM10.351 7.422c0.673-1.121 1.467-2.023 2.298-2.609 0.443-0.313 0.895-0.535 1.351-0.668v5.854h-4.852c0.336-0.94 0.738-1.803 1.203-2.578zM14 12v4h-5.979c0.059-1.38 0.24-2.72 0.54-4h5.439zM2.997 22c-0.533-1.278-0.854-2.619-0.959-4h3.983c0.055 1.394 0.224 2.736 0.492 4h-3.516zM8.021 18h5.979v4h-5.439c-0.3-1.28-0.481-2.62-0.54-4zM14 24v5.854c-0.456-0.133-0.908-0.355-1.351-0.668-0.831-0.586-1.625-1.488-2.298-2.609-0.465-0.775-0.867-1.638-1.203-2.578h4.852zM19.649 26.578c-0.673 1.121-1.467 2.023-2.298 2.609-0.443 0.312-0.895 0.535-1.351 0.668v-5.854h4.852c-0.336 0.94-0.738 1.802-1.203 2.578zM16 22v-4h5.979c-0.059 1.38-0.24 2.72-0.54 4h-5.439zM23.98 16c-0.055-1.394-0.224-2.736-0.492-4h3.516c0.533 1.278 0.855 2.619 0.959 4h-3.983zM25.958 10h-2.997c-0.582-1.836-1.387-3.447-2.354-4.732 1.329 0.636 2.533 1.488 3.585 2.54 0.671 0.671 1.261 1.404 1.766 2.192zM5.808 7.808c1.052-1.052 2.256-1.904 3.585-2.54-0.967 1.285-1.771 2.896-2.354 4.732h-2.997c0.504-0.788 1.094-1.521 1.766-2.192zM4.042 24h2.997c0.583 1.836 1.387 3.447 2.354 4.732-1.329-0.636-2.533-1.488-3.585-2.54-0.671-0.671-1.261-1.404-1.766-2.192zM24.192 26.192c-1.052 1.052-2.256 1.904-3.585 2.54 0.967-1.285 1.771-2.896 2.354-4.732h2.997c-0.504 0.788-1.094 1.521-1.766 2.192z"></path>
</symbol>
</defs>
</svg>
