<svg width="80" height="80" fill="none" xmlns="http://www.w3.org/2000/svg"><g clip-path="url(#a)" fill="#086CF9"><path d="M14.07 61.867c-1.12 0-2.196.28-3.151.805A36.942 36.942 0 0 1 3.125 40C3.125 19.667 19.667 3.125 40 3.125c2.472 0 4.943.246 7.344.731a1.563 1.563 0 0 0 .619-3.063A40.297 40.297 0 0 0 40 0C29.316 0 19.27 4.16 11.716 11.716 4.16 19.27 0 29.316 0 40a40.073 40.073 0 0 0 8.608 24.79 6.517 6.517 0 0 0-1.1 3.64c0 1.752.683 3.4 1.923 4.64a6.518 6.518 0 0 0 4.64 1.922 6.52 6.52 0 0 0 4.64-1.922 6.518 6.518 0 0 0 1.922-4.641c0-1.752-.682-3.4-1.922-4.64a6.519 6.519 0 0 0-4.64-1.922Zm2.43 8.993a3.414 3.414 0 0 1-2.43 1.007 3.415 3.415 0 0 1-2.43-1.007 3.415 3.415 0 0 1-1.007-2.43c0-.919.358-1.782 1.007-2.431a3.413 3.413 0 0 1 2.43-1.007c.918 0 1.781.358 2.43 1.007a3.415 3.415 0 0 1 1.008 2.43c0 .918-.358 1.782-1.007 2.431ZM71.39 15.209c1.7-2.549 1.426-6.032-.82-8.28a6.522 6.522 0 0 0-4.64-1.921c-1.754 0-3.402.683-4.641 1.922a6.52 6.52 0 0 0-1.922 4.64c0 1.753.682 3.401 1.922 4.64a6.52 6.52 0 0 0 4.64 1.923c1.12 0 2.197-.28 3.152-.805A36.944 36.944 0 0 1 76.875 40c0 20.333-16.542 36.875-36.875 36.875-2.448 0-4.895-.241-7.274-.717a1.564 1.564 0 0 0-.613 3.064A40.33 40.33 0 0 0 40 80c10.684 0 20.729-4.16 28.284-11.716C75.839 60.73 80 50.684 80 40c0-8.988-3.053-17.76-8.61-24.791ZM63.5 14a3.415 3.415 0 0 1-1.007-2.43c0-.919.357-1.782 1.007-2.431a3.414 3.414 0 0 1 2.43-1.007c.918 0 1.782.357 2.431 1.007a3.443 3.443 0 0 1 0 4.861 3.418 3.418 0 0 1-2.43 1.007A3.415 3.415 0 0 1 63.498 14Z"/><path d="M33.552 66.875c0 .863.7 1.563 1.563 1.563h9.77c.863 0 1.562-.7 1.562-1.563v-3.03a24.47 24.47 0 0 0 5.864-2.43l2.14 2.14a1.563 1.563 0 0 0 2.21-.002l6.905-6.91c.61-.61.61-1.6 0-2.21l-2.137-2.136a24.467 24.467 0 0 0 2.43-5.864h3.018c.864 0 1.563-.7 1.563-1.562V35.1c0-.863-.7-1.563-1.563-1.563H63.86a24.47 24.47 0 0 0-2.43-5.863l2.125-2.125a1.564 1.564 0 0 0 0-2.21l-6.912-6.906c-.61-.61-1.599-.61-2.209 0l-2.122 2.122a24.47 24.47 0 0 0-5.864-2.43v-3.001c0-.863-.7-1.563-1.562-1.563h-9.77c-.863 0-1.563.7-1.563 1.563v3.002a24.45 24.45 0 0 0-5.863 2.43l-2.123-2.123c-.61-.61-1.599-.61-2.21 0l-6.91 6.906a1.561 1.561 0 0 0 0 2.21l2.125 2.125a24.463 24.463 0 0 0-2.43 5.863h-3.013c-.863 0-1.562.7-1.562 1.562l-.006 9.77a1.56 1.56 0 0 0 1.563 1.563h3.017a24.467 24.467 0 0 0 2.43 5.864l-2.136 2.137c-.61.61-.61 1.599 0 2.21l6.906 6.91a1.563 1.563 0 0 0 2.21 0l2.138-2.139a24.49 24.49 0 0 0 5.864 2.43v3.03Zm-5.251-8.746a1.563 1.563 0 0 0-1.953.208l-1.903 1.902-4.697-4.7 1.901-1.901c.52-.52.607-1.334.208-1.953a21.388 21.388 0 0 1-2.96-7.143 1.563 1.563 0 0 0-1.528-1.234h-2.683l.003-6.645h2.68c.737 0 1.373-.514 1.528-1.234a21.39 21.39 0 0 1 2.96-7.142c.4-.618.313-1.432-.208-1.953l-1.888-1.889 4.7-4.697 1.887 1.888c.52.52 1.334.606 1.953.207a21.375 21.375 0 0 1 7.142-2.96 1.564 1.564 0 0 0 1.234-1.527v-2.669h6.645v2.668c0 .737.514 1.374 1.234 1.528a21.393 21.393 0 0 1 7.143 2.96c.618.4 1.431.313 1.952-.208l1.887-1.887 4.7 4.697-1.888 1.889a1.562 1.562 0 0 0-.207 1.953 21.403 21.403 0 0 1 2.96 7.142c.154.72.79 1.234 1.527 1.234h2.685v6.645H62.63c-.737 0-1.373.515-1.528 1.234a21.385 21.385 0 0 1-2.96 7.143c-.4.618-.312 1.432.208 1.953l1.9 1.9-4.696 4.7-1.902-1.901a1.562 1.562 0 0 0-1.953-.208 21.402 21.402 0 0 1-7.143 2.96 1.562 1.562 0 0 0-1.234 1.528v2.696h-6.645v-2.696c0-.736-.514-1.373-1.234-1.528a21.39 21.39 0 0 1-7.142-2.96Z"/><path d="M52.91 40c0-7.12-5.79-12.911-12.91-12.911-7.119 0-12.91 5.791-12.91 12.91 0 7.12 5.791 12.911 12.91 12.911 7.12 0 12.91-5.791 12.91-12.91Zm-22.696 0c0-5.397 4.39-9.786 9.786-9.786s9.786 4.39 9.786 9.786c0 5.395-4.39 9.785-9.786 9.785s-9.786-4.39-9.786-9.785ZM54.387 5.91c.412 0 .814-.168 1.105-.459.29-.292.458-.695.458-1.106 0-.41-.167-.813-.458-1.105a1.574 1.574 0 0 0-1.105-.458 1.57 1.57 0 0 0-1.104.458 1.576 1.576 0 0 0-.458 1.105c0 .412.167.814.458 1.106.29.29.692.458 1.104.458ZM25.681 74.12c-.41 0-.814.166-1.105.457-.29.29-.457.694-.457 1.105 0 .412.167.814.457 1.104.29.29.694.458 1.105.458.41 0 .814-.167 1.105-.458.29-.29.458-.694.458-1.104 0-.411-.168-.815-.458-1.105a1.575 1.575 0 0 0-1.105-.458Z"/></g><defs><clipPath id="a"><path fill="#fff" d="M0 0h80v80H0z"/></clipPath></defs></svg>