<svg width="16" height="16" fill="none" xmlns="http://www.w3.org/2000/svg"><g clip-path="url(#a)"><path d="M15.977 6.164a.469.469 0 0 0-.378-.319l-4.96-.72L8.42.63a.469.469 0 0 0-.84 0L5.36 5.125l-4.96.72a.469.469 0 0 0-.26.8l3.59 3.498-.848 4.94a.469.469 0 0 0 .68.495L8 13.245l4.436 2.333a.469.469 0 0 0 .68-.494l-.847-4.94 3.59-3.5a.469.469 0 0 0 .118-.48Zm-4.539 3.48a.469.469 0 0 0-.135.415l.729 4.247L8.218 12.3a.469.469 0 0 0-.436 0l-3.814 2.005.728-4.247a.469.469 0 0 0-.135-.415L1.476 6.636l4.264-.62a.469.469 0 0 0 .353-.256L8 1.896 9.907 5.76c.068.139.2.235.353.257l4.264.62-3.086 3.007Z" fill="#086CF9"/></g><defs><clipPath id="a"><path fill="#fff" d="M0 0h16v16H0z"/></clipPath></defs></svg>