<svg width="16" height="16" fill="none" xmlns="http://www.w3.org/2000/svg"><g clip-path="url(#a)" fill="#086CF9"><path d="M8 8.02c-4.217 0-7.647 3.431-7.647 7.647a.333.333 0 0 0 .665 0A6.99 6.99 0 0 1 8 8.685a6.99 6.99 0 0 1 6.982 6.982.333.333 0 0 0 .665 0c0-4.217-3.43-7.646-7.647-7.646ZM8 0a3.662 3.662 0 0 0-3.657 3.657A3.662 3.662 0 0 0 8 7.314a3.662 3.662 0 0 0 3.657-3.657A3.662 3.662 0 0 0 8 0Zm0 6.65a2.996 2.996 0 0 1-2.992-2.993A2.996 2.996 0 0 1 8 .665a2.996 2.996 0 0 1 2.992 2.992A2.996 2.996 0 0 1 8 6.65Z"/></g><defs><clipPath id="a"><path fill="#fff" d="M0 0h16v16H0z"/></clipPath></defs></svg>