<svg width="16" height="16" fill="none" xmlns="http://www.w3.org/2000/svg"><path d="M15.94 7.81c-.125-.182-3.153-4.476-7.94-4.476-4.107 0-7.768 4.269-7.922 4.45a.335.335 0 0 0 0 .432c.154.182 3.815 4.451 7.922 4.451 4.107 0 7.767-4.27 7.921-4.451a.333.333 0 0 0 .02-.405ZM8 12C4.707 12 1.577 8.86.781 8 1.575 7.14 4.703 4 8 4c3.853 0 6.572 3.136 7.236 3.982C14.47 8.815 11.321 12 8 12Z" fill="#086CF9"/><path d="M8 5.333A2.67 2.67 0 0 0 5.333 8 2.67 2.67 0 0 0 8 10.667 2.67 2.67 0 0 0 10.667 8 2.67 2.67 0 0 0 8 5.333ZM8 10c-1.103 0-2-.897-2-2 0-1.102.897-2 2-2s2 .898 2 2c0 1.103-.897 2-2 2Z" fill="#086CF9"/></svg>